<mxfile host="app.diagrams.net" modified="2022-04-26T12:06:10.283Z" agent="5.0 (Macintosh; Intel Mac OS X 10_15_7) AppleWebKit/537.36 (KHTML, like Gecko) Chrome/100.0.4896.127 Safari/537.36" etag="J47R_994Heq-PFe7TO1-" version="17.4.6" type="github">
  <diagram id="iBjuOhT5ulxvrjHh29C7" name="Page-1">
    <mxGraphModel dx="1591" dy="1011" grid="1" gridSize="10" guides="0" tooltips="1" connect="1" arrows="1" fold="1" page="1" pageScale="1" pageWidth="827" pageHeight="1169" math="0" shadow="0">
      <root>
        <mxCell id="0" />
        <mxCell id="1" parent="0" />
        <mxCell id="4DZSBZ8nRWweAsXE0eoO-2" style="edgeStyle=orthogonalEdgeStyle;rounded=0;orthogonalLoop=1;jettySize=auto;html=1;exitX=0.5;exitY=0.5;exitDx=0;exitDy=15;exitPerimeter=0;fontSize=14;" parent="1" source="4DZSBZ8nRWweAsXE0eoO-1" edge="1">
          <mxGeometry relative="1" as="geometry">
            <mxPoint x="250" y="120" as="targetPoint" />
          </mxGeometry>
        </mxCell>
        <mxCell id="4DZSBZ8nRWweAsXE0eoO-1" value="Start" style="html=1;dashed=0;whitespace=wrap;shape=mxgraph.dfd.start;fontSize=14;" parent="1" vertex="1">
          <mxGeometry x="210" y="50" width="80" height="30" as="geometry" />
        </mxCell>
        <mxCell id="4DZSBZ8nRWweAsXE0eoO-4" style="edgeStyle=orthogonalEdgeStyle;rounded=0;orthogonalLoop=1;jettySize=auto;html=1;exitX=0.5;exitY=1;exitDx=0;exitDy=0;fontSize=14;" parent="1" source="4DZSBZ8nRWweAsXE0eoO-3" edge="1">
          <mxGeometry relative="1" as="geometry">
            <mxPoint x="250" y="210" as="targetPoint" />
          </mxGeometry>
        </mxCell>
        <mxCell id="4DZSBZ8nRWweAsXE0eoO-3" value="1. Generate initial population" style="html=1;dashed=0;whitespace=wrap;fontSize=14;" parent="1" vertex="1">
          <mxGeometry x="150" y="120" width="187.5" height="60" as="geometry" />
        </mxCell>
        <mxCell id="4DZSBZ8nRWweAsXE0eoO-9" style="edgeStyle=orthogonalEdgeStyle;rounded=0;orthogonalLoop=1;jettySize=auto;html=1;exitX=0.5;exitY=1;exitDx=0;exitDy=0;fontSize=14;" parent="1" source="4DZSBZ8nRWweAsXE0eoO-5" edge="1">
          <mxGeometry relative="1" as="geometry">
            <mxPoint x="250" y="310" as="targetPoint" />
          </mxGeometry>
        </mxCell>
        <mxCell id="4DZSBZ8nRWweAsXE0eoO-5" value="2. Evaluate individual fitness&lt;br&gt;Update personal best&lt;br&gt;Update global best" style="html=1;dashed=0;whitespace=wrap;fontSize=14;" parent="1" vertex="1">
          <mxGeometry x="160" y="210" width="186.25" height="70" as="geometry" />
        </mxCell>
        <mxCell id="4DZSBZ8nRWweAsXE0eoO-11" style="edgeStyle=orthogonalEdgeStyle;rounded=0;orthogonalLoop=1;jettySize=auto;html=1;exitX=1;exitY=0.5;exitDx=0;exitDy=0;fontSize=14;" parent="1" source="4DZSBZ8nRWweAsXE0eoO-10" edge="1">
          <mxGeometry relative="1" as="geometry">
            <mxPoint x="360" y="360" as="targetPoint" />
          </mxGeometry>
        </mxCell>
        <mxCell id="4DZSBZ8nRWweAsXE0eoO-13" style="edgeStyle=orthogonalEdgeStyle;rounded=0;orthogonalLoop=1;jettySize=auto;html=1;exitX=0.5;exitY=1;exitDx=0;exitDy=0;fontSize=14;entryX=0.5;entryY=0;entryDx=0;entryDy=0;" parent="1" source="4DZSBZ8nRWweAsXE0eoO-10" target="4DZSBZ8nRWweAsXE0eoO-16" edge="1">
          <mxGeometry relative="1" as="geometry">
            <mxPoint x="250" y="440" as="targetPoint" />
          </mxGeometry>
        </mxCell>
        <mxCell id="4DZSBZ8nRWweAsXE0eoO-10" value="3. Optimal solution?" style="shape=rhombus;html=1;dashed=0;whitespace=wrap;perimeter=rhombusPerimeter;fontSize=14;" parent="1" vertex="1">
          <mxGeometry x="180" y="310" width="145" height="110" as="geometry" />
        </mxCell>
        <mxCell id="4DZSBZ8nRWweAsXE0eoO-12" value="Stop" style="html=1;dashed=0;whitespace=wrap;shape=mxgraph.dfd.start;fontSize=14;" parent="1" vertex="1">
          <mxGeometry x="360" y="345" width="80" height="30" as="geometry" />
        </mxCell>
        <mxCell id="4DZSBZ8nRWweAsXE0eoO-14" value="Yes" style="text;html=1;strokeColor=none;fillColor=none;align=center;verticalAlign=middle;whiteSpace=wrap;rounded=0;fontSize=14;" parent="1" vertex="1">
          <mxGeometry x="310" y="340" width="60" height="30" as="geometry" />
        </mxCell>
        <mxCell id="4DZSBZ8nRWweAsXE0eoO-15" value="No" style="text;html=1;strokeColor=none;fillColor=none;align=center;verticalAlign=middle;whiteSpace=wrap;rounded=0;fontSize=14;" parent="1" vertex="1">
          <mxGeometry x="210" y="410" width="60" height="30" as="geometry" />
        </mxCell>
        <mxCell id="4DZSBZ8nRWweAsXE0eoO-17" style="edgeStyle=orthogonalEdgeStyle;rounded=0;orthogonalLoop=1;jettySize=auto;html=1;exitX=0.5;exitY=1;exitDx=0;exitDy=0;fontSize=14;entryX=0.5;entryY=0;entryDx=0;entryDy=0;" parent="1" source="4DZSBZ8nRWweAsXE0eoO-16" target="4DZSBZ8nRWweAsXE0eoO-18" edge="1">
          <mxGeometry relative="1" as="geometry">
            <mxPoint x="250" y="540" as="targetPoint" />
          </mxGeometry>
        </mxCell>
        <mxCell id="4DZSBZ8nRWweAsXE0eoO-16" value="4. Generate new population" style="html=1;dashed=0;whitespace=wrap;fontSize=14;" parent="1" vertex="1">
          <mxGeometry x="160" y="450" width="186.25" height="70" as="geometry" />
        </mxCell>
        <mxCell id="4DZSBZ8nRWweAsXE0eoO-19" style="edgeStyle=orthogonalEdgeStyle;rounded=0;orthogonalLoop=1;jettySize=auto;html=1;exitX=0.5;exitY=1;exitDx=0;exitDy=0;fontSize=14;" parent="1" source="4DZSBZ8nRWweAsXE0eoO-18" edge="1">
          <mxGeometry relative="1" as="geometry">
            <mxPoint x="250" y="190" as="targetPoint" />
            <Array as="points">
              <mxPoint x="253" y="600" />
              <mxPoint x="253" y="630" />
              <mxPoint x="130" y="630" />
              <mxPoint x="130" y="190" />
            </Array>
          </mxGeometry>
        </mxCell>
        <mxCell id="4DZSBZ8nRWweAsXE0eoO-18" value="5. Update velocity&lt;br&gt;Update position" style="html=1;dashed=0;whitespace=wrap;fontSize=14;" parent="1" vertex="1">
          <mxGeometry x="190" y="550" width="130" height="50" as="geometry" />
        </mxCell>
      </root>
    </mxGraphModel>
  </diagram>
</mxfile>
